<?xml version="1.0" encoding="UTF-8" standalone="no"?>
<!-- Created with Inkscape (http://www.inkscape.org/) -->

<svg
   version="1.1"
   id="svg1"
   width="307.20001"
   height="380.79999"
   viewBox="0 0 307.20001 380.79999"
   sodipodi:docname="logo.svg"
   inkscape:version="1.3 (0e150ed6c4, 2023-07-21)"
   xmlns:inkscape="http://www.inkscape.org/namespaces/inkscape"
   xmlns:sodipodi="http://sodipodi.sourceforge.net/DTD/sodipodi-0.dtd"
   xmlns="http://www.w3.org/2000/svg"
   xmlns:svg="http://www.w3.org/2000/svg">
  <defs
     id="defs1" />
  <sodipodi:namedview
     id="namedview1"
     pagecolor="#ffffff"
     bordercolor="#000000"
     borderopacity="0.25"
     inkscape:showpageshadow="2"
     inkscape:pageopacity="0.0"
     inkscape:pagecheckerboard="0"
     inkscape:deskcolor="#d1d1d1"
     inkscape:zoom="1.8216542"
     inkscape:cx="57.914396"
     inkscape:cy="188.56488"
     inkscape:window-width="1920"
     inkscape:window-height="1131"
     inkscape:window-x="0"
     inkscape:window-y="0"
     inkscape:window-maximized="1"
     inkscape:current-layer="g1" />
  <g
     inkscape:groupmode="layer"
     inkscape:label="Image"
     id="g1">
    <g
       id="g9">
      <path
         style="fill:#e61a23;fill-opacity:1;stroke-width:1.53359"
         d="m 149.85878,366.97418 c 10.99986,-7.57171 18.65985,-19.66026 27.6939,-28.53309 v -12.46825 c -0.48216,-1.60284 -1.54952,-4.63013 -2.03808,-6.62174 -0.62934,-2.5655 0.41752,-2.05043 3.48931,-2.87351 14.98886,-4.01625 16.15389,-10.78984 33.80814,-10.78984 2.58711,1.06742 9.46453,6.04359 11.14436,4.36377 1.66114,-1.66114 2.06844,-5.23001 2.63006,-8.15981 0.22938,-4.42384 -7.10255,-15.61095 -11.01882,-18.6791 -7.72863,-5.46462 -20.51974,-10.2297 -29.50299,-14.42587 -2.48222,-1.15947 -7.42327,-5.2653 -7.433,-5.27503 -4.41109,-4.53374 -9.73281,-13.04881 -10.66993,-19.54159 l -8.57192,-0.063 -8.57193,-0.063 v -2.75438 -2.75437 h 10.17373 10.17372 c 3.47207,6.69739 4.9428,12.93845 9.08079,19.11585 2.96469,4.42584 8.2056,6.29033 12.3357,8.03856 17.18611,7.27471 38.09166,14.59916 39.9852,36.75962 0,10.36648 -2.12488,14.82326 -4.78169,17.82647 -0.30515,0.34494 -0.12768,0.502 -2.15796,0.502 -1.97304,0 -2.15797,-0.0397 -2.15797,-0.46339 0,-2.76865 -7.44173,-7.7177 -8.63186,-8.16848 -3.42294,-1.2965 -6.94281,-0.8999 -10.49012,0.0506 -7.0868,1.8989 -15.26222,6.48729 -20.69514,8.84286 -1.0786,0.93164 -1.20087,2.43693 -1.18424,3.93445 0.009,0.7852 0.75339,14.98587 0,14.98587 -0.29906,1.81209 -28.22232,31.88995 -29.98791,31.88995 -0.99327,-1.46895 -1.62788,-3.43374 -2.62135,-4.67556 z"
         id="path5"
         sodipodi:nodetypes="sccssssccsssscccccssssssssssssss" />
      <path
         style="fill:#e61a23;fill-opacity:1;stroke-width:1.53359"
         d="m 150.81787,225.62738 c 11.31092,0 20.76559,-0.0179 31.05629,-0.0179 l -0.0352,5.26155 c -10.34034,0.0323 -20.6807,0.0314 -31.02108,0.0314 z"
         id="path6"
         sodipodi:nodetypes="ccccc" />
      <path
         style="fill:#e61a23;fill-opacity:1;stroke-width:1.53359"
         d="m 251.04559,208.86404 c -1.18955,-1.01071 -3.44921,-3.19378 -4.7752,-4.57655 -1.74204,-1.81664 -4.0057,-4.46352 -5.81213,-5.82916 -2.36159,-1.78534 -7.63761,-2.66914 -12.19335,-2.68282 l -6.00617,-0.10522 c -6.13848,4.16575 -19.02137,15.77327 -26.27576,22.2775 -0.36376,0.32615 -4.05351,0.24659 -7.12239,0.24659 h -8.95304 c -1.08448,0.034 -0.82195,-3.48394 -0.82195,-5.5148 0,-37.44137 41.35124,-71.93221 60.44871,-71.93221 10.92488,0 26.85243,-0.0198 30.5558,-0.0198 6.81996,0 30.10379,15.88394 30.10379,28.40549 0,4.88915 0.0303,11.592 0.0303,15.78567 0,5.66029 -15.85244,22.64832 -15.85244,32.19667 v 5.39491 c -12.35403,-0.77255 -23.77034,-5.88728 -33.32647,-13.64627 z m 29.26324,8.00516 c 0,-9.60823 14.1337,-27.34048 14.1337,-32.96251 0,-0.46833 0.41823,-8.26584 0.47955,-14.93927 0.0614,-6.68198 -12.26917,-20.47302 -25.45543,-23.37629 l -26.25119,0.003 c -18.21282,0 -57.82766,32.80405 -58.45941,67.06906 1.69487,0 6.52535,0.0161 8.86149,0.0161 0.90849,0 7.61587,-5.99934 7.93971,-6.22052 2.70048,-1.84442 14.28945,-11.90391 18.53162,-14.35313 6.19665,0 15.63243,-0.4955 20.55843,1.31829 2.58333,0.95121 4.57467,3.14695 6.10104,4.68285 0.34673,0.34889 4.64248,5.47002 7.82645,7.9195 9.05057,7.08903 14.76423,10.88417 25.73404,10.84292 z"
         id="path7"
         sodipodi:nodetypes="sssccsscsscssscsscsccssscssssc" />
      <path
         style="fill:#e61a23;fill-opacity:1;stroke-width:1.53359"
         d="m 150.81787,219.12288 v -6.4433 h 6.95345 c 6.71009,0 6.95345,-0.0162 6.95345,-0.46287 12.9313,-26.73406 41.72568,-89.18532 51.80053,-114.628673 2.95856,-10.927019 -7.55761,-23.692702 -13.78419,-30.135478 -11.98345,-10.214971 -24.43792,-18.985682 -36.30996,-33.884193 -7.15163,-8.974763 -10.10934,-12.968148 -13.92107,-19.181923 -0.72097,-1.1753 -3.6104,-9.1396352 -3.6104,-10.0555522 V 2.5142183 c 1.87902,0 3.45653,0.00341 5.27601,0.00341 -0.0905,0.8913948 0.28937,1.6943645 0.46713,2.2778534 3.29317,10.8094463 9.10227,16.5916353 14.11683,24.3285423 4.14704,6.417541 28.06635,26.389403 41.97249,39.587846 7.68565,7.044262 13.11659,19.78762 10.88752,29.363492 -3.35352,12.515508 -34.10888,78.462148 -50.9005,114.843988 -0.74865,1.8958 -0.47955,4.19155 -0.47955,6.23413 -6.75382,0 -12.38898,-0.0306 -19.4217,-0.0306 z"
         id="path8"
         sodipodi:nodetypes="ccscscsssccsccccccc" />
      <path
         style="fill:#2c2e92;fill-opacity:1;stroke-width:2.16883"
         d="m 128.51576,327.39304 c 0,-0.33909 -0.33909,-0.50863 -1.01728,-0.50863 -0.67818,0 -1.01727,-0.16955 -1.01727,-0.50864 0,-0.35524 -0.35793,-0.50864 -1.18682,-0.50864 -1.31148,0 -1.6804,-0.8091 -0.50864,-1.11553 0.46091,-0.12053 0.67818,-0.46252 0.67818,-1.06746 0,-0.48957 0.22889,-0.97795 0.50864,-1.0853 0.34531,-0.13251 0.50864,-0.67351 0.50864,-1.68482 0,-1.09805 0.1337,-1.48963 0.50863,-1.48963 0.37494,0 0.50864,-0.39158 0.50864,-1.48963 0,-1.01132 0.16333,-1.55231 0.50864,-1.68482 0.38982,-0.14959 0.50864,-0.79175 0.50864,-2.74902 0,-2.044 0.10153,-2.55382 0.50863,-2.55382 0.44082,0 0.50864,-1.35637 0.50864,-10.17276 0,-8.81638 -0.0678,-10.17275 -0.50864,-10.17275 -0.3956,0 -0.50863,-0.45212 -0.50863,-2.03455 0,-1.58243 -0.11303,-2.03455 -0.50864,-2.03455 -0.3843,0 -0.50864,-0.41444 -0.50864,-1.69546 0,-1.28101 -0.12433,-1.69545 -0.50864,-1.69545 -0.33909,0 -0.50863,-0.3391 -0.50863,-1.01728 0,-0.67818 -0.16955,-1.01727 -0.50864,-1.01727 -0.32138,0 -0.50864,-0.32379 -0.50864,-0.87948 0,-0.5943 -0.21991,-0.93698 -0.67818,-1.05682 -0.50961,-0.13327 -0.67818,-0.46253 -0.67818,-1.32462 0,-0.79374 -0.15674,-1.14728 -0.50864,-1.14728 -0.27975,0 -0.50864,-0.22888 -0.50864,-0.50863 0,-0.27975 -0.22889,-0.50864 -0.50864,-0.50864 -0.27975,0 -0.50864,-0.22889 -0.50864,-0.50864 0,-0.27975 -0.22888,-0.50864 -0.50863,-0.50864 -0.33909,0 -0.50864,-0.33909 -0.50864,-1.01727 0,-0.67819 -0.16955,-1.01728 -0.50864,-1.01728 -0.27975,0 -0.50864,-0.22888 -0.50864,-0.50863 0,-0.27976 -0.22888,-0.50864 -0.50863,-0.50864 -0.27975,0 -0.50864,-0.21257 -0.50864,-0.47236 0,-0.51848 -0.71253,-0.88401 -1.72319,-0.88401 -0.35775,0 -0.65045,-0.22889 -0.65045,-0.50864 0,-0.27975 -0.22889,-0.50863 -0.50864,-0.50863 -0.27975,0 -0.50864,-0.22889 -0.50864,-0.50864 0,-0.27975 -0.22888,-0.50864 -0.50864,-0.50864 -0.27975,0 -0.50863,-0.22889 -0.50863,-0.50864 0,-0.3956 -0.45212,-0.50863 -2.03455,-0.50863 -1.58243,0 -2.03455,0.11303 -2.03455,0.50863 0,0.3244 -0.32609,0.50864 -0.90024,0.50864 -0.61072,0 -1.31954,0.44079 -2.20409,1.37065 -0.71713,0.75385 -1.30387,1.51681 -1.30387,1.69546 0,0.17864 -0.45777,0.32481 -1.01727,0.32481 -0.67818,0 -1.01728,0.16954 -1.01728,0.50864 0,0.27975 -0.22888,0.50863 -0.50863,0.50863 -0.27975,0 -0.50864,0.22889 -0.50864,0.50864 0,0.27975 -0.23368,0.50864 -0.51928,0.50864 -0.28561,0 -0.60711,0.22889 -0.71446,0.50864 -0.11126,0.28993 -0.61699,0.50863 -1.17618,0.50863 -0.64594,0 -0.980998,0.17373 -0.980998,0.50864 0,0.27975 -0.228887,0.50864 -0.508637,0.50864 -0.279751,0 -0.508638,0.22889 -0.508638,0.50864 0,0.27975 -0.228887,0.50863 -0.508638,0.50863 -0.27975,0 -0.508637,0.23368 -0.508637,0.51928 0,0.28561 -0.228887,0.60711 -0.508638,0.71446 -0.27975,0.10736 -0.508637,0.40775 -0.508637,0.66755 0,0.25979 -0.228887,0.47236 -0.508638,0.47236 -0.279751,0 -0.508637,0.22888 -0.508637,0.50863 0,0.35524 -0.357932,0.50864 -1.186821,0.50864 -0.82889,0 -1.186821,0.1534 -1.186821,0.50864 0,0.27975 -0.228887,0.50864 -0.508638,0.50864 -0.279751,0 -0.508637,0.22888 -0.508637,0.50863 0,0.27975 -0.228887,0.50864 -0.508638,0.50864 -0.279751,0 -0.508638,0.22889 -0.508638,0.50864 0,0.27975 -0.228887,0.50864 -0.508637,0.50864 -0.279751,0 -0.508638,0.22888 -0.508638,0.50863 0,0.27975 -0.228887,0.50864 -0.508637,0.50864 -0.282576,0 -0.508638,0.30142 -0.508638,0.67818 0,0.37677 -0.226062,0.67819 -0.508637,0.67819 -0.279751,0 -0.508638,0.22888 -0.508638,0.50864 0,0.27975 -0.233675,0.50863 -0.519278,0.50863 -0.285607,0 -0.607113,0.22889 -0.714463,0.50864 -0.111259,0.28993 -0.616991,0.50864 -1.17618,0.50864 -0.645936,0 -0.980996,0.17373 -0.980996,0.50864 0,0.27975 -0.228887,0.50863 -0.508638,0.50863 -0.27975,0 -0.508637,0.22889 -0.508637,0.50864 0,0.27975 -0.228887,0.50864 -0.508638,0.50864 -0.27975,0 -0.508637,0.22889 -0.508637,0.50864 0,0.27975 -0.228887,0.50863 -0.508638,0.50863 -0.279751,0 -0.508637,0.22889 -0.508637,0.50864 0,0.27975 -0.228887,0.50864 -0.508638,0.50864 -0.282575,0 -0.508638,0.30141 -0.508638,0.67818 0,0.45212 -0.226062,0.67819 -0.678183,0.67819 -0.376768,0 -0.678183,0.22606 -0.678183,0.50863 0,0.27975 -0.228887,0.50864 -0.508638,0.50864 -0.279751,0 -0.508638,0.22889 -0.508638,0.50864 0,0.33909 -0.339091,0.50864 -1.017275,0.50864 -0.678183,0 -1.017275,0.16954 -1.017275,0.50863 0,0.27975 -0.228887,0.50864 -0.508637,0.50864 -0.279751,0 -0.508638,0.22889 -0.508638,0.50864 0,0.27975 -0.228887,0.50864 -0.508637,0.50864 -0.279751,0 -0.508638,0.22888 -0.508638,0.50863 0,0.27975 -0.228887,0.50864 -0.508638,0.50864 -0.27975,0 -0.508637,0.21109 -0.508637,0.46909 0,0.258 -0.305183,0.54889 -0.678184,0.64644 -0.373,0.0975 -0.678183,0.42052 -0.678183,0.71773 0,0.37436 -0.312531,0.54038 -1.017275,0.54038 -0.678183,0 -1.017275,0.16955 -1.017275,0.50864 0,0.27975 -0.228887,0.50864 -0.508638,0.50864 -0.27975,0 -0.508637,0.22889 -0.508637,0.50864 0,0.27975 -0.228887,0.50863 -0.508638,0.50863 -0.279751,0 -0.508637,0.22889 -0.508637,0.50864 0,0.27975 -0.228887,0.50864 -0.508638,0.50864 -0.279751,0 -0.508638,0.22889 -0.508638,0.50864 0,0.32258 -0.324687,0.50863 -0.887623,0.50863 -0.902645,0 -3.520569,2.2397 -3.520569,3.01193 0,0.20845 -0.457774,0.37899 -1.017275,0.37899 -0.678183,0 -1.017275,0.16955 -1.017275,0.50864 0,0.27975 -0.228887,0.50864 -0.508638,0.50864 -0.27975,0 -0.508637,0.22888 -0.508637,0.50863 0,0.35524 -0.357932,0.50864 -1.186821,0.50864 -0.828889,0 -1.186821,0.1534 -1.186821,0.50864 0,0.27975 -0.228887,0.50864 -0.508638,0.50864 -0.27975,0 -0.508637,0.22888 -0.508637,0.50863 0,0.3391 -0.339092,0.50864 -1.017275,0.50864 -0.678184,0 -1.017275,0.16955 -1.017275,0.50864 0,0.33909 -0.339092,0.50864 -1.017276,0.50864 -0.559501,0 -1.017275,0.14565 -1.017275,0.32368 0,0.17802 -0.388412,0.71209 -0.863141,1.18682 -0.633776,0.63377 -1.219482,0.86314 -2.204096,0.86314 -0.965899,0 -1.340955,0.14226 -1.340955,0.50864 0,0.37676 -0.395608,0.50863 -1.525913,0.50863 -1.130304,0 -1.525912,0.13187 -1.525912,0.50864 0,0.40974 -0.527478,0.50864 -2.712734,0.50864 -2.185257,0 -2.712734,0.0989 -2.712734,0.50864 0,0.39995 -0.47096,0.50863 -2.204096,0.50863 -1.733135,0 -2.204096,-0.10868 -2.204096,-0.50863 0,-0.41643 -0.583991,-0.50864 -3.221371,-0.50864 -2.63738,0 -3.221371,-0.0922 -3.221371,-0.50864 0,-0.33909 -0.339092,-0.50864 -1.017275,-0.50864 -0.678184,0 -1.017276,-0.16954 -1.017276,-0.50863 0,-0.37677 -0.395607,-0.50864 -1.525912,-0.50864 -1.098405,0 -1.525913,-0.1361 -1.525913,-0.48579 0,-0.26718 -0.305182,-0.58265 -0.678183,-0.70103 -0.373001,-0.11839 -0.678184,-0.43385 -0.678184,-0.70104 0,-0.3137 -0.360359,-0.48578 -1.017275,-0.48578 -0.678183,0 -1.017275,-0.16955 -1.017275,-0.50864 0,-0.27975 -0.228887,-0.50864 -0.508638,-0.50864 -0.27975,0 -0.508637,-0.22889 -0.508637,-0.50864 0,-0.27975 -0.228887,-0.50863 -0.508638,-0.50863 -0.27975,0 -0.508637,-0.22889 -0.508637,-0.50864 0,-0.27975 -0.228887,-0.50864 -0.508638,-0.50864 -0.27975,0 -0.508637,-0.22889 -0.508637,-0.50864 0,-0.27975 -0.228887,-0.50863 -0.508638,-0.50863 -0.279751,0 -0.508637,-0.22889 -0.508637,-0.50864 0,-0.28258 -0.301415,-0.50864 -0.678184,-0.50864 -0.549006,0 -0.678183,-0.22606 -0.678183,-1.18682 0,-0.82889 -0.153399,-1.18682 -0.508638,-1.18682 -0.27975,0 -0.508637,-0.22889 -0.508637,-0.50864 0,-0.27975 -0.228887,-0.50864 -0.508638,-0.50864 -0.339092,0 -0.508638,-0.33909 -0.508638,-1.01727 0,-0.67818 -0.169545,-1.01728 -0.508637,-1.01728 -0.339092,0 -0.508638,-0.33909 -0.508638,-1.01727 0,-0.67819 -0.169545,-1.01728 -0.508637,-1.01728 -0.340262,0 -0.508638,-0.34027 -0.508638,-1.02791 0,-0.6009 -0.2113002,-1.10901 -0.5086373,-1.2231 -0.3453133,-0.13251 -0.5086376,-0.67351 -0.5086376,-1.68482 0,-1.09806 -0.1337042,-1.48963 -0.5086376,-1.48963 -0.7677828,0 -0.7677828,-21.19078 0,-21.48541 0.4219116,-0.1619 0.5086376,-1.09316 0.5086376,-5.46174 0,-4.45533 0.078348,-5.26657 0.5086376,-5.26657 0.4212953,0 0.5086373,-0.6405 0.5086373,-3.73001 0,-3.0895 0.08734,-3.73 0.508638,-3.73 0.424995,0 0.508637,-0.69703 0.508637,-4.23865 0,-3.54162 0.08364,-4.23865 0.508638,-4.23865 0.416428,0 0.508637,-0.58399 0.508637,-3.22137 0,-2.63738 0.09221,-3.22137 0.508638,-3.22137 0.40691,0 0.508638,-0.50864 0.508638,-2.54319 0,-2.03455 -0.101728,-2.54318 -0.508638,-2.54318 -0.416428,0 -0.508638,-0.584 -0.508638,-3.22138 0,-2.63738 -0.09221,-3.22137 -0.508637,-3.22137 -0.424995,0 -0.508638,-0.69702 -0.508638,-4.23864 0,-3.54163 -0.08364,-4.23865 -0.508637,-4.23865 -0.421296,0 -0.508638,-0.64051 -0.508638,-3.73001 0,-3.0895 -0.08734,-3.73001 -0.5086373,-3.73001 -0.4302896,0 -0.5086376,-0.81123 -0.5086376,-5.26656 0,-4.36858 -0.086726,-5.29984 -0.5086376,-5.46175 -0.7677828,-0.29462 -0.7677828,-21.4854 0,-21.4854 0.3749334,0 0.5086376,-0.39158 0.5086376,-1.48963 0,-1.01131 0.1633243,-1.55231 0.5086376,-1.68482 0.2973371,-0.1141 0.5086373,-0.6222 0.5086373,-1.2231 0,-0.68764 0.168376,-1.02792 0.508638,-1.02792 0.339092,0 0.508637,-0.33909 0.508637,-1.01727 0,-0.67819 0.169546,-1.01728 0.508638,-1.01728 0.339092,0 0.508637,-0.33909 0.508637,-1.01727 0,-0.67819 0.169546,-1.01728 0.508638,-1.01728 0.279751,0 0.508638,-0.22888 0.508638,-0.50864 0,-0.27975 0.228887,-0.50863 0.508637,-0.50863 0.355239,0 0.508638,-0.35793 0.508638,-1.18682 0,-0.96076 0.129177,-1.18682 0.678183,-1.18682 0.376769,0 0.678184,-0.22607 0.678184,-0.50864 0,-0.27975 0.228886,-0.50864 0.508637,-0.50864 0.279751,0 0.508638,-0.22889 0.508638,-0.50864 0,-0.27975 0.228887,-0.50863 0.508637,-0.50863 0.279751,0 0.508638,-0.22889 0.508638,-0.50864 0,-0.27975 0.228887,-0.50864 0.508637,-0.50864 0.279751,0 0.508638,-0.22889 0.508638,-0.50864 0,-0.27975 0.228887,-0.50864 0.508637,-0.50864 0.279751,0 0.508638,-0.22888 0.508638,-0.50863 0,-0.33909 0.339092,-0.50864 1.017275,-0.50864 0.656916,0 1.017275,-0.17209 1.017275,-0.48579 0,-0.26718 0.305183,-0.58264 0.678184,-0.70103 0.373001,-0.11839 0.678183,-0.43385 0.678183,-0.70104 0,-0.34968 0.427508,-0.48578 1.525913,-0.48578 1.130305,0 1.525912,-0.13187 1.525912,-0.50864 0,-0.33909 0.339092,-0.50864 1.017276,-0.50864 0.678183,0 1.017275,-0.16954 1.017275,-0.50863 0,-0.41643 0.583991,-0.50864 3.221371,-0.50864 2.63738,0 3.221371,-0.0922 3.221371,-0.50864 0,-0.39996 0.470961,-0.50864 2.204096,-0.50864 1.733136,0 2.204096,0.10868 2.204096,0.50864 0,0.41643 0.583992,0.50864 3.221372,0.50864 2.63738,0 3.221371,0.0922 3.221371,0.50864 0,0.33909 0.339092,0.50863 1.017275,0.50863 0.678183,0 1.017275,0.16955 1.017275,0.50864 0,0.36638 0.375056,0.50864 1.340955,0.50864 0.984614,0 1.57032,0.22937 2.204096,0.86314 0.474729,0.47473 0.863141,1.0088 0.863141,1.18682 0,0.17802 0.457774,0.32368 1.017275,0.32368 0.678184,0 1.017276,0.16955 1.017276,0.50864 0,0.33909 0.339091,0.50863 1.017275,0.50863 5.412827,0 50.947523,47.81194 52.220123,47.81194 0.65692,0 1.01727,0.17208 1.01727,0.48578 0,0.26719 0.30519,0.58265 0.67819,0.70104 0.373,0.11838 0.67818,0.43385 0.67818,0.70103 0,0.26718 0.22889,0.48579 0.50864,0.48579 0.27975,0 0.50864,0.22888 0.50864,0.50864 0,0.27975 0.22888,0.50863 0.50863,0.50863 0.27975,0 0.50864,0.22889 0.50864,0.50864 0,0.33909 0.33909,0.50864 1.01728,0.50864 0.67818,0 1.01727,0.16954 1.01727,0.50864 0,0.33909 0.33909,0.50863 1.01728,0.50863 0.67818,0 1.01727,0.16955 1.01727,0.50864 0,0.35524 0.35793,0.50864 1.18682,0.50864 0.82889,0 1.18682,0.1534 1.18682,0.50864 0,0.3956 0.45213,0.50863 2.03455,0.50863 1.58243,0 2.03455,-0.11303 2.03455,-0.50863 0,-0.27976 0.22889,-0.50864 0.50864,-0.50864 0.37677,0 0.50864,-0.39561 0.50864,-1.52591 0,-1.13031 -0.38632,-6.03732 -0.60098,-6.34696 -13.38138,-19.30236 -40.134604,-56.36583 -59.894601,-83.78799 -3.840549,-5.23709 -3.229653,-10.00505 -3.238933,-13.03535 0,-17.599994 20.310983,-28.566833 45.762654,-28.566833 10.33083,0 22.98976,3.050442 34.24826,3.833119 v 3.139408 c -5.03735,0 -28.32406,-3.41271 -34.33897,-3.41271 -8.007058,0 -40.369858,3.294133 -40.600296,25.771616 -0.0366,3.57028 -0.654462,4.59539 2.61561,9.01877 21.071047,28.98387 40.923326,58.35753 61.981356,86.43555 0.41643,0 0.50864,0.58399 0.50864,3.22137 0,2.63738 -0.0922,3.22137 -0.50864,3.22137 -0.37729,0 -0.50863,0.39679 -0.50863,1.53655 0,1.05302 -0.16006,1.59798 -0.50864,1.73174 -0.28993,0.11126 -0.50864,0.61699 -0.50864,1.17618 0,0.64594 -0.17372,0.981 -0.50864,0.981 -0.27975,0 -0.50863,0.22888 -0.50863,0.50863 0,0.27975 -0.22889,0.50864 -0.50864,0.50864 -0.27975,0 -0.50864,0.22889 -0.50864,0.50864 0,0.34026 -0.34027,0.50864 -1.02791,0.50864 -0.6009,0 -1.10901,0.2113 -1.2231,0.50863 -0.28749,0.74917 -6.56537,0.74917 -6.56537,0 0,-0.33909 -0.33909,-0.50863 -1.01728,-0.50863 -0.67818,0 -1.01727,-0.16955 -1.01727,-0.50864 0,-0.33909 -0.33909,-0.50864 -1.01728,-0.50864 -0.67818,0 -1.01727,-0.16955 -1.01727,-0.50864 0,-0.33491 -0.33506,-0.50863 -0.981,-0.50863 -0.55919,0 -1.06492,-0.21871 -1.17618,-0.50864 -0.10735,-0.27975 -0.42886,-0.50864 -0.71446,-0.50864 -0.28561,0 -0.51928,-0.2327 -0.51928,-0.51711 0,-0.3033 -0.42062,-0.60124 -1.01728,-0.72057 -0.5595,-0.1119 -0.82832,-0.49633 -1.01727,-0.66971 -8.499046,-7.79852 -26.771654,-24.68139 -52.220123,-48.78682 -0.246181,-0.23319 -0.339092,-0.50864 -1.017275,-0.50864 -0.664101,0 -1.017276,-0.17125 -1.017276,-0.49327 0,-0.29527 -0.476396,-0.58265 -1.186821,-0.71592 -0.679733,-0.12752 -1.186821,-0.42385 -1.186821,-0.69355 0,-0.25899 -0.228886,-0.4709 -0.508637,-0.4709 -0.279751,0 -0.508638,-0.22889 -0.508638,-0.50864 0,-0.33909 -0.339091,-0.50863 -1.017275,-0.50863 -0.678183,0 -1.017275,-0.16955 -1.017275,-0.50864 0,-0.37494 -0.391576,-0.50864 -1.489633,-0.50864 -1.011311,0 -1.552308,-0.16332 -1.684818,-0.50864 -0.292918,-0.76334 -13.780134,-0.76334 -13.780134,0 0,0.38431 -0.414446,0.50864 -1.695459,0.50864 -1.281013,0 -1.695458,0.12433 -1.695458,0.50864 0,0.33909 -0.339092,0.50864 -1.017276,0.50864 -0.678183,0 -1.017275,0.16954 -1.017275,0.50863 0,0.33909 -0.339091,0.50864 -1.017275,0.50864 -0.687449,0 -1.017275,0.16836 -1.017275,0.51928 0,0.28561 -0.228887,0.60711 -0.508637,0.71446 -0.279751,0.10735 -0.508638,0.40775 -0.508638,0.66754 0,0.2598 -0.305183,0.47236 -0.678183,0.47236 -0.376769,0 -0.678184,0.22606 -0.678184,0.50864 0,0.27975 -0.228887,0.50864 -0.508637,0.50864 -0.279751,0 -0.508638,0.22888 -0.508638,0.50863 0,0.27976 -0.228887,0.50864 -0.508638,0.50864 -0.339091,0 -0.508637,0.33909 -0.508637,1.01728 0,0.67818 -0.169546,1.01727 -0.508638,1.01727 -0.27975,0 -0.508637,0.22889 -0.508637,0.50864 0,0.27975 -0.228887,0.50864 -0.508638,0.50864 -0.355239,0 -0.508637,0.35793 -0.508637,1.18682 0,0.82889 -0.153399,1.18682 -0.508638,1.18682 -0.376768,0 -0.508637,0.39561 -0.508637,1.52591 0,1.13031 -0.131869,1.52592 -0.508638,1.52592 -0.33452,0 -0.508638,0.33469 -0.508638,0.97772 0,0.69255 -0.197808,1.02946 -0.678183,1.15508 -0.656404,0.17165 -0.678183,0.46252 -0.678183,9.05722 0,8.5947 0.02178,8.88557 0.678183,9.05723 0.637101,0.1666 0.678183,0.46252 0.678183,4.88508 0,3.95859 0.08094,4.70774 0.508638,4.70774 0.427902,0 0.508638,0.75353 0.508638,4.74728 0,3.99375 0.08074,4.74728 0.508637,4.74728 0.421296,0 0.508638,0.64051 0.508638,3.73001 0,3.0895 0.08734,3.73001 0.508637,3.73001 0.421296,0 0.508638,0.64051 0.508638,3.73001 0,3.0895 0.08734,3.73001 0.508637,3.73001 0.422636,0 0.508638,0.65934 0.508638,3.89955 0,3.24021 -0.086,3.89956 -0.508638,3.89956 -0.421295,0 -0.508637,0.6405 -0.508637,3.73001 0,3.0895 -0.08734,3.73001 -0.508638,3.73001 -0.421295,0 -0.508637,0.6405 -0.508637,3.73 0,3.08951 -0.08734,3.73001 -0.508638,3.73001 -0.427901,0 -0.508637,0.75354 -0.508637,4.74729 0,3.99374 -0.08074,4.74728 -0.508638,4.74728 -0.427698,0 -0.508638,0.74914 -0.508638,4.70774 0,4.42255 -0.04108,4.71847 -0.678183,4.88508 -0.656404,0.17165 -0.678183,0.46252 -0.678183,9.05722 0,8.5947 0.02178,8.88558 0.678183,9.05723 0.548065,0.14332 0.678183,0.46253 0.678183,1.66371 0,1.09515 0.133875,1.48637 0.508638,1.48637 0.339092,0 0.508638,0.33909 0.508638,1.01727 0,0.67818 0.169545,1.01728 0.508637,1.01728 0.340262,0 0.508638,0.34027 0.508638,1.02791 0,0.6009 0.2113,1.109 0.508637,1.2231 0.279751,0.10736 0.508638,0.40775 0.508638,0.66755 0,0.25979 0.228887,0.47235 0.508637,0.47235 0.339092,0 0.508638,0.3391 0.508638,1.01728 0,0.67818 0.169546,1.01727 0.508637,1.01727 0.279751,0 0.508638,0.22889 0.508638,0.50864 0,0.27975 0.228887,0.50864 0.508638,0.50864 0.27975,0 0.508637,0.22889 0.508637,0.50864 0,0.28257 0.301415,0.50863 0.678184,0.50863 0.376768,0 0.678183,0.22607 0.678183,0.50864 0,0.27975 0.228887,0.50864 0.508638,0.50864 0.282576,0 0.508637,0.30141 0.508637,0.67818 0,0.52748 0.226061,0.67819 1.017275,0.67819 0.678184,0 1.017275,0.16954 1.017275,0.50863 0,0.3391 0.339092,0.50864 1.017275,0.50864 0.678184,0 1.017276,0.16955 1.017276,0.50864 0,0.35524 0.35793,0.50864 1.186821,0.50864 0.82889,0 1.186821,0.15339 1.186821,0.50863 0,0.43638 1.037296,0.50864 7.301114,0.50864 6.177069,0 7.331164,-0.0783 7.496295,-0.50864 0.13251,-0.34531 0.673507,-0.50863 1.684818,-0.50863 1.098057,0 1.489633,-0.13371 1.489633,-0.50864 0,-0.33909 0.339092,-0.50864 1.017275,-0.50864 0.678184,0 1.017275,-0.16954 1.017275,-0.50864 0,-0.27975 0.228887,-0.50863 0.508638,-0.50863 0.282575,0 0.508637,-0.30142 0.508637,-0.67819 0,-0.549 0.226063,-0.67818 1.186821,-0.67818 0.82889,0 1.186821,-0.1534 1.186821,-0.50864 0,-0.33909 0.339092,-0.50864 1.017276,-0.50864 0.678183,0 1.017275,-0.16954 1.017275,-0.50863 0,-0.27975 0.228887,-0.50864 0.508637,-0.50864 0.279751,0 0.508638,-0.22889 0.508638,-0.50864 0,-0.33909 0.339091,-0.50864 1.017275,-0.50864 0.678183,0 1.017275,-0.16954 1.017275,-0.50863 0,-0.27975 0.197897,-0.50864 0.439771,-0.50864 0.241875,0 0.814092,-0.45131 1.271594,-1.00292 0.475848,-0.57372 1.171911,-1.00906 1.626525,-1.01727 0.502103,-0.009 0.859998,-0.26406 0.97205,-0.69255 0.09754,-0.373 0.38844,-0.67818 0.646438,-0.67818 0.257998,0 0.469089,-0.22889 0.469089,-0.50864 0,-0.27975 0.228887,-0.50863 0.508638,-0.50863 0.279751,0 0.508637,-0.22889 0.508637,-0.50864 0,-0.34026 0.340276,-0.50864 1.027916,-0.50864 0.600898,0 1.109003,-0.2113 1.223101,-0.50864 0.107353,-0.27975 0.407744,-0.50863 0.667542,-0.50863 0.259796,0 0.472359,-0.22889 0.472359,-0.50864 0,-0.27975 0.228886,-0.50864 0.508637,-0.50864 0.279751,0 0.508638,-0.22889 0.508638,-0.50864 0,-0.27975 0.228887,-0.50863 0.508637,-0.50863 0.279751,0 0.508638,-0.21257 0.508638,-0.47236 0,-0.2598 0.228887,-0.56019 0.508637,-0.66755 0.279751,-0.10734 0.508638,-0.42885 0.508638,-0.71446 0,-0.2856 0.228887,-0.51928 0.508637,-0.51928 0.279751,0 0.508638,-0.22888 0.508638,-0.50863 0,-0.35524 0.357932,-0.50864 1.186821,-0.50864 0.828889,0 1.186821,-0.1534 1.186821,-0.50864 0,-0.27975 0.228887,-0.50864 0.508638,-0.50864 0.27975,0 0.508637,-0.22888 0.508637,-0.50863 0,-0.27975 0.228887,-0.50864 0.508638,-0.50864 0.27975,0 0.508637,-0.22889 0.508637,-0.50864 0,-0.27975 0.228887,-0.50864 0.508638,-0.50864 0.27975,0 0.508637,-0.22888 0.508637,-0.50863 0,-0.27975 0.228887,-0.50864 0.508638,-0.50864 0.279751,0 0.508637,-0.21256 0.508637,-0.47236 0,-0.2598 0.228887,-0.56019 0.508638,-0.66754 0.279751,-0.10735 0.508638,-0.42886 0.508638,-0.71447 0,-0.36739 0.347121,-0.51927 1.186821,-0.51927 0.828889,0 1.186821,-0.1534 1.186821,-0.50864 0,-0.27975 0.228886,-0.50864 0.508637,-0.50864 0.279751,0 0.508638,-0.22889 0.508638,-0.50864 0,-0.27975 0.228887,-0.50863 0.508637,-0.50863 0.279751,0 0.508638,-0.22889 0.508638,-0.50864 0,-0.27975 0.228887,-0.50864 0.508637,-0.50864 0.279751,0 0.508638,-0.22889 0.508638,-0.50864 0,-0.27975 0.228887,-0.50863 0.508637,-0.50863 0.279751,0 0.508638,-0.22889 0.508638,-0.50864 0,-0.27975 0.228887,-0.50864 0.508638,-0.50864 0.27975,0 0.508637,-0.21256 0.508637,-0.47236 0,-0.2598 0.228887,-0.56019 0.508638,-0.66754 0.27975,-0.10735 0.508637,-0.42886 0.508637,-0.71446 0,-0.3674 0.347122,-0.51928 1.186821,-0.51928 0.82889,0 1.186821,-0.1534 1.186821,-0.50864 0,-0.27975 0.228887,-0.50864 0.508638,-0.50864 0.27975,0 0.508637,-0.22888 0.508637,-0.50863 0,-0.27975 0.228887,-0.50864 0.508638,-0.50864 0.279751,0 0.508638,-0.22889 0.508638,-0.50864 0,-0.27975 0.228886,-0.50864 0.508637,-0.50864 0.279751,0 0.508638,-0.22888 0.508638,-0.50863 0,-0.27975 0.228887,-0.50864 0.508637,-0.50864 0.279751,0 0.508638,-0.22889 0.508638,-0.50864 0,-0.32345 0.325351,-0.50864 0.893618,-0.50864 0.85658,0 2.497299,-1.34817 2.497299,-2.05202 0,-0.17689 0.228887,-0.32162 0.508637,-0.32162 0.279751,0 0.508638,-0.22889 0.508638,-0.50864 0,-0.27975 0.228887,-0.50863 0.508638,-0.50863 0.27975,0 0.508637,-0.22889 0.508637,-0.50864 0,-0.27975 0.228887,-0.50864 0.508638,-0.50864 0.27975,0 0.50864,-0.22889 0.50864,-0.50864 0,-0.31829 0.32152,-0.50863 0.85915,-0.50863 0.50758,0 1.26609,-0.41629 1.85358,-1.01728 0.54693,-0.5595 1.24509,-1.01727 1.55146,-1.01727 0.663,0 2.16437,-1.34733 2.17269,-1.94978 0.003,-0.2436 0.4385,-0.42387 1.02313,-0.42387 0.67819,0 1.01728,-0.16954 1.01728,-0.50863 0,-0.35524 0.35793,-0.50864 1.18682,-0.50864 0.82889,0 1.18682,-0.1534 1.18682,-0.50864 0,-0.33909 0.33909,-0.50864 1.01728,-0.50864 0.67818,0 1.01727,0.16955 1.01727,0.50864 0,0.33909 0.33909,0.50864 1.01728,0.50864 0.67818,0 1.01727,0.16954 1.01727,0.50864 0,0.27975 0.28739,0.50863 0.63864,0.50863 0.35345,0 0.71782,0.30284 0.81598,0.67819 0.11984,0.45827 0.46253,0.67818 1.05682,0.67818 0.5557,0 0.87948,0.18726 0.87948,0.50864 0,0.27975 0.22889,0.50864 0.50864,0.50864 0.27975,0 0.50863,0.22888 0.50863,0.50863 0,0.27975 0.22889,0.50864 0.50864,0.50864 0.27975,0 0.50864,0.22889 0.50864,0.50864 0,0.27975 0.22889,0.50864 0.50864,0.50864 0.27975,0 0.50863,0.22888 0.50863,0.50863 0,0.27975 0.22889,0.50864 0.50864,0.50864 0.27975,0 0.50864,0.22889 0.50864,0.50864 0,0.28257 0.30142,0.50864 0.67818,0.50864 0.37677,0 0.67819,0.22606 0.67819,0.50863 0,0.27975 0.22888,0.50864 0.50863,0.50864 0.27975,0 0.50864,0.23368 0.50864,0.51928 0,0.28561 0.22889,0.60711 0.50864,0.71446 0.27975,0.10736 0.50864,0.40775 0.50864,0.66754 0,0.2598 0.22888,0.47236 0.50863,0.47236 0.27976,0 0.50864,0.22889 0.50864,0.50864 0,0.27975 0.22889,0.50864 0.50864,0.50864 0.33909,0 0.50864,0.33909 0.50864,1.01727 0,0.67819 0.16954,1.01728 0.50863,1.01728 0.3391,0 0.50864,0.33909 0.50864,1.01727 0,0.67819 0.16955,1.01728 0.50864,1.01728 0.34251,0 0.50864,0.34262 0.50864,1.04902 0,0.76384 0.18436,1.09723 0.67818,1.22637 0.48038,0.12562 0.67818,0.46253 0.67818,1.15507 0,0.64303 0.17412,0.97773 0.50864,0.97773 0.37677,0 0.50864,0.39561 0.50864,1.52591 0,1.13031 0.13187,1.52592 0.50864,1.52592 0.39995,0 0.50863,0.47096 0.50863,2.20409 0,1.73314 0.10869,2.2041 0.50864,2.2041 0.4213,0 0.50864,0.64051 0.50864,3.73001 0,3.0895 0.0873,3.73001 0.50864,3.73001 0.42129,0 0.50863,0.6405 0.50863,3.73 0,3.08951 -0.0873,3.73001 -0.50863,3.73001 -0.425,0 -0.50864,0.69703 -0.50864,4.23865 0,3.54162 -0.0836,4.23865 -0.50864,4.23865 -0.39995,0 -0.50864,0.47096 -0.50864,2.20409 0,1.73314 -0.10868,2.2041 -0.50863,2.2041 -0.37677,0 -0.50864,0.39561 -0.50864,1.52591 0,1.13031 -0.13187,1.52591 -0.50864,1.52591 -0.38268,0 -0.50864,0.41005 -0.50864,1.65591 0,1.37073 -0.11679,1.68646 -0.67818,1.83326 -0.45827,0.11984 -0.67818,0.46253 -0.67818,1.05683 0,0.55569 -0.18726,0.87947 -0.50864,0.87947 -0.33909,0 -0.50864,0.33909 -0.50864,1.01728 0,0.67818 -0.16954,1.01727 -0.50864,1.01727 -0.27975,0 -0.50863,-0.22889 -0.50863,-0.50864 z"
         id="path9"
         sodipodi:nodetypes="ssssssssssssssssssssssssssssssssssssssssssssssssssssssssssssssssssssssssssssssssssssssssssssssssssssssssssssssssssssssssssssssssssssssssssssssssssssssssssssssssssssssssssssssssssssssssssssssssssssssssssssssssssssssssssssssssssssssssssssssssssscsscccscssssssssssssssssssssssssssssssssssssssssssssssssssssssssssssssssssssssssssssssssssssssssssssssssssssssssssssssssssssssssscsssssssssssssssssssssssssssssssssssssssssssssssssssssssssssssssscssssssssssssssssssssssssssssssssssssssssssssssssssssssssss" />
    </g>
  </g>
</svg>
