<?xml version="1.0" encoding="UTF-8" standalone="no"?>
<!-- Created with Inkscape (http://www.inkscape.org/) -->

<svg
   version="1.1"
   id="svg1"
   width="307.20001"
   height="380.79999"
   viewBox="0 0 307.20001 380.79999"
   sodipodi:docname="logo.svg"
   inkscape:version="1.3 (0e150ed6c4, 2023-07-21)"
   xmlns:inkscape="http://www.inkscape.org/namespaces/inkscape"
   xmlns:sodipodi="http://sodipodi.sourceforge.net/DTD/sodipodi-0.dtd"
   xmlns="http://www.w3.org/2000/svg"
   xmlns:svg="http://www.w3.org/2000/svg">
  <defs
     id="defs1" />
  <sodipodi:namedview
     id="namedview1"
     pagecolor="#ffffff"
     bordercolor="#000000"
     borderopacity="0.25"
     inkscape:showpageshadow="2"
     inkscape:pageopacity="0.0"
     inkscape:pagecheckerboard="0"
     inkscape:deskcolor="#d1d1d1"
     inkscape:zoom="2"
     inkscape:cx="18.25"
     inkscape:cy="284.25"
     inkscape:window-width="2560"
     inkscape:window-height="1371"
     inkscape:window-x="0"
     inkscape:window-y="0"
     inkscape:window-maximized="1"
     inkscape:current-layer="g9" />
  <g
     inkscape:groupmode="layer"
     inkscape:label="Image"
     id="g1">
    <g
       id="g9">
      <path
         style="fill:#e61a23;fill-opacity:1;stroke-width:1.53359"
         d="m 149.85878,366.97418 c 10.99986,-7.57171 18.65985,-19.66026 27.6939,-28.53309 v -12.46825 c -0.48216,-1.60284 -1.54952,-4.63013 -2.03808,-6.62174 -0.62934,-2.5655 0.41752,-2.05043 3.48931,-2.87351 14.98886,-4.01625 16.15389,-10.78984 33.80814,-10.78984 2.58711,1.06742 9.46453,6.04359 11.14436,4.36377 1.66114,-1.66114 2.06844,-5.23001 2.63006,-8.15981 0.22938,-4.42384 -7.10255,-15.61095 -11.01882,-18.6791 -7.72863,-5.46462 -20.51974,-10.2297 -29.50299,-14.42587 -2.48222,-1.15947 -7.42327,-5.2653 -7.433,-5.27503 -4.41109,-4.53374 -9.73281,-13.04881 -10.66993,-19.54159 l -8.57192,-0.063 -8.57193,-0.063 v -2.75438 -2.75437 h 10.17373 10.17372 c 3.47207,6.69739 4.9428,12.93845 9.08079,19.11585 2.96469,4.42584 8.2056,6.29033 12.3357,8.03856 17.18611,7.27471 38.09166,14.59916 39.9852,36.75962 0,10.36648 -2.12488,14.82326 -4.78169,17.82647 -0.30515,0.34494 -0.12768,0.502 -2.15796,0.502 -1.97304,0 -2.15797,-0.0397 -2.15797,-0.46339 0,-2.76865 -7.44173,-7.7177 -8.63186,-8.16848 -3.42294,-1.2965 -6.94281,-0.8999 -10.49012,0.0506 -7.0868,1.8989 -15.26222,6.48729 -20.69514,8.84286 -1.0786,0.93164 -1.20087,2.43693 -1.18424,3.93445 0.009,0.7852 0.75339,14.98587 0,14.98587 -0.29906,1.81209 -28.22232,31.88995 -29.98791,31.88995 -0.99327,-1.46895 -1.62788,-3.43374 -2.62135,-4.67556 z"
         id="path5"
         sodipodi:nodetypes="sccssssccsssscccccssssssssssssss" />
      <path
         style="fill:#e61a23;fill-opacity:1;stroke-width:1.53359"
         d="m 150.81787,225.62738 c 11.31092,0 20.76559,-0.0179 31.05629,-0.0179 l -0.0352,5.26155 c -10.34034,0.0323 -20.6807,0.0314 -31.02108,0.0314 z"
         id="path6"
         sodipodi:nodetypes="ccccc" />
      <path
         style="fill:#e61a23;fill-opacity:1;stroke-width:1.53359"
         d="m 251.04559,208.86404 c -1.18955,-1.01071 -3.44921,-3.19378 -4.7752,-4.57655 -1.74204,-1.81664 -4.0057,-4.46352 -5.81213,-5.82916 -2.36159,-1.78534 -7.63761,-2.66914 -12.19335,-2.68282 l -6.00617,-0.10522 c -6.13848,4.16575 -19.02137,15.77327 -26.27576,22.2775 -0.36376,0.32615 -4.05351,0.24659 -7.12239,0.24659 h -8.95304 c -1.08448,0.034 -0.82195,-3.48394 -0.82195,-5.5148 0,-37.44137 41.35124,-71.93221 60.44871,-71.93221 10.92488,0 26.85243,-0.0198 30.5558,-0.0198 6.81996,0 30.10379,15.88394 30.10379,28.40549 0,4.88915 0.0303,11.592 0.0303,15.78567 0,5.66029 -15.85244,22.64832 -15.85244,32.19667 v 5.39491 c -12.35403,-0.77255 -23.77034,-5.88728 -33.32647,-13.64627 z m 29.26324,8.00516 c 0,-9.60823 14.1337,-27.34048 14.1337,-32.96251 0,-0.46833 0.41823,-8.26584 0.47955,-14.93927 0.0614,-6.68198 -12.26917,-20.47302 -25.45543,-23.37629 l -26.25119,0.003 c -18.21282,0 -57.82766,32.80405 -58.45941,67.06906 1.69487,0 6.52535,0.0161 8.86149,0.0161 0.90849,0 7.61587,-5.99934 7.93971,-6.22052 2.70048,-1.84442 14.28945,-11.90391 18.53162,-14.35313 6.19665,0 15.63243,-0.4955 20.55843,1.31829 2.58333,0.95121 4.57467,3.14695 6.10104,4.68285 0.34673,0.34889 4.64248,5.47002 7.82645,7.9195 9.05057,7.08903 14.76423,10.88417 25.73404,10.84292 z"
         id="path7"
         sodipodi:nodetypes="sssccsscsscssscsscsccssscssssc" />
      <path
         style="fill:#e61a23;fill-opacity:1;stroke-width:1.53359"
         d="m 150.81787,219.12288 v -6.4433 h 6.95345 c 6.71009,0 6.95345,-0.0162 6.95345,-0.46287 12.9313,-26.73406 41.72568,-89.18532 51.80053,-114.628673 2.95856,-10.927019 -7.55761,-23.692702 -13.78419,-30.135478 -11.98345,-10.214971 -24.43792,-18.985682 -36.30996,-33.884193 -7.15163,-8.974763 -10.10934,-12.968148 -13.92107,-19.181923 -0.72097,-1.1753 -3.6104,-9.1396352 -3.6104,-10.0555522 V 2.5142183 c 1.87902,0 3.45653,0.00341 5.27601,0.00341 -0.0905,0.8913948 0.28937,1.6943645 0.46713,2.2778534 3.29317,10.8094463 9.10227,16.5916353 14.11683,24.3285423 4.14704,6.417541 28.06635,26.389403 41.97249,39.587846 7.68565,7.044262 13.11659,19.78762 10.88752,29.363492 -3.35352,12.515508 -34.10888,78.462148 -50.9005,114.843988 -0.74865,1.8958 -0.47955,4.19155 -0.47955,6.23413 -6.75382,0 -12.38898,-0.0306 -19.4217,-0.0306 z"
         id="path8"
         sodipodi:nodetypes="ccscscsssccsccccccc" />
      <path
         style="fill:#2c2e92;fill-opacity:1;stroke-width:2.16883"
         d="m 124.78575,324.7516 c 4.21302,-1.17963 9.2844,-61.06918 -15.14209,-56.53006 -19.58599,15.32811 -40.75957,31.54122 -60.829866,47.13375 -58.3705204,11.19475 -38.625991,-47.21938 -35.589217,-77.48246 -20.2116015,-81.13947 4.611535,-80.49175 29.042236,-79.4253 4.224729,0.18442 8.484988,1.91914 13.639039,5.45966 4.042391,2.65409 50.515258,46.64493 51.247128,47.68603 3.33108,4.73852 11.15035,7.46001 12.88548,7.46001 1.74513,0.0506 2.98542,-0.83444 3.43789,-2.35587 0.25526,-0.8583 -0.11838,-5.0297 -0.98704,-6.53427 -13.38138,-19.30236 -40.134604,-56.36583 -59.894601,-83.78799 -3.840549,-5.23709 -3.229653,-10.00505 -3.238933,-13.03535 0,-17.599994 20.311112,-28.485853 45.762654,-28.566833 10.3615,-0.03297 23.44301,2.181657 34.24826,3.451599 v 3.520928 c -5.03735,0 -28.29627,-3.110774 -34.31118,-3.110774 -7.880511,0.533584 -40.315895,3.336921 -40.628086,25.46968 -0.05036,3.57011 -0.654462,4.59539 2.61561,9.01877 21.071047,28.98387 40.923326,58.35753 61.981356,86.43555 1.58135,2.97864 0.0375,11.99309 -3.98449,14.05376 -6.03561,3.09231 -12.5124,-0.78015 -17.88692,-5.11022 -8.499046,-7.79852 -48.698674,-45.68292 -52.220123,-48.78682 -2.784451,-2.45429 -7.38716,-5.03633 -10.592252,-5.34734 -54.2735862,-5.26645 -26.147752,46.3217 -25.690561,73.5048 0.02812,1.67208 -5.425467,37.71559 -5.425467,46.9642 0,33.64869 30.62512,26.89204 31.927203,25.91015 7.547814,-5.69174 42.640785,-31.98821 64.03575,-48.45974 13.86303,-4.73702 24.84372,17.70102 24.84372,30.30741 -0.13916,11.62094 1.71273,26.34747 -5.00686,35.30683 -1.33045,-1.17517 -2.57768,-2.1149 -4.23864,-3.1501 z"
         id="path9"
         sodipodi:nodetypes="ccccscsssccsscccsccssssssscscc" />
    </g>
  </g>
</svg>
